<?xml version="1.0" encoding="utf-8"?>
<!-- Generator: Adobe Illustrator 16.0.0, SVG Export Plug-In . SVG Version: 6.00 Build 0)  -->
<!DOCTYPE svg PUBLIC "-//W3C//DTD SVG 1.1//EN" "http://www.w3.org/Graphics/SVG/1.1/DTD/svg11.dtd">
<svg version="1.1" id="Github" xmlns="http://www.w3.org/2000/svg" xmlns:xlink="http://www.w3.org/1999/xlink" x="0px" y="0px"
	 width="30px" height="30px" viewBox="0 0 30 30" enable-background="new 0 0 30 30" xml:space="preserve">
<circle id="Circle" fill="#F7F7F7" cx="15" cy="15" r="11.25"/>
<path id="Cat_2_" fill="#000607" d="M17.551,22.031h-1.873h-1.875c0,0,0.005-1.112,0-1.875c-2.565,0.553-3.281-1.406-3.281-1.406
	c-0.469-0.938-0.938-1.406-0.938-1.406c-0.938-0.557,0-0.469,0-0.469c0.938,0,1.406,0.938,1.406,0.938
	c0.823,1.396,2.287,1.172,2.812,0.938c0-0.469,0.206-1.178,0.469-1.406c-2.047-0.23-3.752-1.406-3.752-3.75s0.471-2.812,0.939-3.281
	c-0.095-0.231-0.487-1.085,0.015-2.344c0,0,0.921,0,1.858,1.406c0.465-0.464,1.875-0.469,2.344-0.469
	c0.468,0,1.879,0.004,2.343,0.469c0.938-1.406,1.861-1.406,1.861-1.406c0.501,1.259,0.108,2.113,0.014,2.344
	c0.469,0.469,0.938,0.938,0.938,3.281s-1.702,3.52-3.75,3.75c0.265,0.229,0.469,1.035,0.469,1.406L17.551,22.031L17.551,22.031z"/>
</svg>
