<?xml version="1.0" encoding="utf-8"?>
<!-- Generator: Adobe Illustrator 16.0.0, SVG Export Plug-In . SVG Version: 6.00 Build 0)  -->
<!DOCTYPE svg PUBLIC "-//W3C//DTD SVG 1.1//EN" "http://www.w3.org/Graphics/SVG/1.1/DTD/svg11.dtd">
<svg version="1.1" id="Layer_1" xmlns="http://www.w3.org/2000/svg" xmlns:xlink="http://www.w3.org/1999/xlink" x="0px" y="0px"
	 width="30px" height="30px" viewBox="0 0 30 30" enable-background="new 0 0 30 30" xml:space="preserve">
<g id="linkdin__x2C__social__x2C_media_x2C__logo">
	<path fill="#F0F2F2" d="M25.457,0.938H4.542c-1.981,0-3.605,1.624-3.605,3.604v20.915c0,1.98,1.624,3.605,3.605,3.605h20.915
		c1.981,0,3.605-1.625,3.605-3.604V4.542C29.062,2.562,27.438,0.938,25.457,0.938z M10.605,14.521v8.683H6.797v-8.035v-2.922h3.809
		V14.521z M8.693,10.613c-1.06,0-1.919-0.859-1.919-1.919c0-1.061,0.859-1.918,1.919-1.918c1.061,0,1.92,0.858,1.92,1.918
		C10.613,9.754,9.754,10.613,8.693,10.613z M23.203,17.227v5.977h-3.281v-5.322c0-1.274-0.139-2.914-1.885-2.914
		c-1.773,0-2.041,1.388-2.041,2.822v5.414h-3.164v-8.841v-2.116h3.047v1.465h0.032c0.454-0.82,1.567-1.466,3.226-1.466
		c2.793,0,3.742,1.321,4.002,3.388c0.062,0.484,0.086,1.008,0.086,1.594H23.203z"/>
</g>
<g id="Layer_1_1_">
</g>
</svg>
