<?xml version="1.0" encoding="utf-8"?>
<!-- Generator: Adobe Illustrator 16.0.0, SVG Export Plug-In . SVG Version: 6.00 Build 0)  -->
<!DOCTYPE svg PUBLIC "-//W3C//DTD SVG 1.1//EN" "http://www.w3.org/Graphics/SVG/1.1/DTD/svg11.dtd">
<svg version="1.1" id="Layer_1" xmlns="http://www.w3.org/2000/svg" xmlns:xlink="http://www.w3.org/1999/xlink" x="0px" y="0px"
	 width="30px" height="30px" viewBox="0 0 30 30" enable-background="new 0 0 30 30" xml:space="preserve">
<path fill="#F2F4F4" d="M27.959,7.972c-0.958,0.426-1.989,0.713-3.071,0.842c1.104-0.662,1.952-1.709,2.352-2.959
	c-1.033,0.613-2.177,1.059-3.396,1.299c-0.977-1.04-2.366-1.689-3.904-1.689c-2.953,0-5.348,2.394-5.348,5.348
	c0,0.418,0.047,0.827,0.139,1.219c-4.445-0.224-8.386-2.353-11.024-5.588c-0.46,0.789-0.724,1.708-0.724,2.689
	c0,1.855,0.944,3.493,2.379,4.451c-0.876-0.028-1.701-0.269-2.422-0.669c0,0.022,0,0.045,0,0.068c0,2.59,1.844,4.752,4.291,5.245
	c-0.449,0.121-0.921,0.188-1.409,0.188c-0.345,0-0.68-0.034-1.006-0.098c0.681,2.125,2.656,3.672,4.996,3.715
	c-1.83,1.435-4.136,2.289-6.642,2.289c-0.431,0-0.857-0.025-1.276-0.074c2.368,1.518,5.179,2.402,8.199,2.402
	c9.838,0,15.217-8.148,15.217-15.216c0-0.232-0.005-0.463-0.016-0.693C26.336,9.987,27.243,9.044,27.959,7.972z"/>
</svg>
